<svg width="50" height="50" viewBox="0 0 50 50" fill="none" xmlns="http://www.w3.org/2000/svg">
<path d="M33.333 16.6666C36.6482 16.6666 39.8276 17.9836 42.1718 20.3278C44.516 22.672 45.833 25.8514 45.833 29.1666V43.75H37.4997V29.1666C37.4997 28.0616 37.0607 27.0017 36.2793 26.2203C35.4979 25.4389 34.4381 25 33.333 25C32.2279 25 31.1681 25.4389 30.3867 26.2203C29.6053 27.0017 29.1663 28.0616 29.1663 29.1666V43.75H20.833V29.1666C20.833 25.8514 22.15 22.672 24.4942 20.3278C26.8384 17.9836 30.0178 16.6666 33.333 16.6666V16.6666Z" stroke="#19C2D8" stroke-width="4.16667" stroke-linecap="round" stroke-linejoin="round"/>
<path d="M4.1665 18.75H12.4998V43.75H4.1665V18.75Z" stroke="#19C2D8" stroke-width="4.16667" stroke-linecap="round" stroke-linejoin="round"/>
<path d="M8.33317 12.5C10.6344 12.5 12.4998 10.6345 12.4998 8.33329C12.4998 6.03211 10.6344 4.16663 8.33317 4.16663C6.03198 4.16663 4.1665 6.03211 4.1665 8.33329C4.1665 10.6345 6.03198 12.5 8.33317 12.5Z" stroke="#19C2D8" stroke-width="4.16667" stroke-linecap="round" stroke-linejoin="round"/>
</svg>
