<svg width="50" height="50" viewBox="0 0 50 50" fill="none" xmlns="http://www.w3.org/2000/svg">
<g clip-path="url(#clip0)">
<path d="M33.3332 45.8333V37.7708C33.4113 36.7774 33.2771 35.7787 32.9395 34.8412C32.6018 33.9037 32.0684 33.0487 31.3748 32.3333C37.9165 31.6041 44.7915 29.125 44.7915 17.75C44.791 14.8413 43.6721 12.0441 41.6665 9.93745C42.6162 7.39267 42.5491 4.57985 41.479 2.08328C41.479 2.08328 39.0207 1.35412 33.3332 5.16662C28.5582 3.8725 23.5248 3.8725 18.7498 5.16662C13.0623 1.35412 10.604 2.08328 10.604 2.08328C9.53395 4.57985 9.4668 7.39267 10.4165 9.93745C8.39594 12.0597 7.27593 14.8822 7.2915 17.8125C7.2915 29.1041 14.1665 31.5833 20.7082 32.3958C20.0227 33.1041 19.4941 33.9487 19.1567 34.8748C18.8193 35.8009 18.6807 36.7876 18.7498 37.7708V45.8333M18.7498 39.5833C8.33317 42.7083 8.33317 34.375 4.1665 33.3333L18.7498 39.5833Z" stroke="#19C2D8" stroke-width="4.16667" stroke-linecap="round" stroke-linejoin="round"/>
</g>
<defs>
<clipPath id="clip0">
<rect width="50" height="50" fill="white"/>
</clipPath>
</defs>
</svg>
